<svg width="29" height="28" viewBox="0 0 29 28" fill="none" xmlns="http://www.w3.org/2000/svg">
<mask id="mask0_55_244" style="mask-type:luminance" maskUnits="userSpaceOnUse" x="2" y="2" width="25" height="25">
<path fill-rule="evenodd" clip-rule="evenodd" d="M2.83331 2.33337H26.9793V26.4471H2.83331V2.33337Z" fill="white"/>
</mask>
<g mask="url(#mask0_55_244)">
<path fill-rule="evenodd" clip-rule="evenodd" d="M9.41632 4.08337C6.02832 4.08337 4.58282 5.80537 4.58282 9.83854V18.9374C4.58282 22.652 6.63382 24.6972 10.3578 24.6972H19.4368C23.1515 24.6972 25.1967 22.652 25.1967 18.9374V18.9339L25.2293 13.1414C25.2293 9.17587 23.869 7.63004 20.3748 7.63004H17.0732C15.966 7.62887 14.909 7.10037 14.244 6.21604L13.1788 4.79971C12.844 4.35054 12.3085 4.08454 11.7485 4.08337H9.41632ZM19.4368 26.4472H10.3578C5.71682 26.4472 2.83282 23.569 2.83282 18.9374V9.83854C2.83282 4.85804 5.04832 2.33337 9.41632 2.33337H11.7497C12.8592 2.33454 13.9162 2.86421 14.5788 3.74971L15.6417 5.16371C15.9788 5.61171 16.5143 5.87887 17.0743 5.88004H20.3748C24.8805 5.88004 26.9793 8.18887 26.9793 13.146L26.9467 18.9409C26.9455 23.5702 24.0685 26.4472 19.4368 26.4472Z" fill="#6C6C6C"/>
</g>
<path fill-rule="evenodd" clip-rule="evenodd" d="M20.0017 18.3317H9.81091C9.32791 18.3317 8.93591 17.9397 8.93591 17.4567C8.93591 16.9737 9.32791 16.5817 9.81091 16.5817H20.0017C20.4847 16.5817 20.8767 16.9737 20.8767 17.4567C20.8767 17.9397 20.4847 18.3317 20.0017 18.3317Z" fill="#6C6C6C"/>
</svg>
