<svg width="29" height="28" viewBox="0 0 29 28" fill="none" xmlns="http://www.w3.org/2000/svg">
<path fill-rule="evenodd" clip-rule="evenodd" d="M14.5 4.08337C9.03181 4.08337 4.58331 8.53187 4.58331 14C4.58331 19.4682 9.03181 23.9167 14.5 23.9167C19.9681 23.9167 24.4166 19.4682 24.4166 14C24.4166 8.53187 19.9681 4.08337 14.5 4.08337ZM14.5 25.6667C8.06698 25.6667 2.83331 20.433 2.83331 14C2.83331 7.56704 8.06698 2.33337 14.5 2.33337C20.933 2.33337 26.1666 7.56704 26.1666 14C26.1666 20.433 20.933 25.6667 14.5 25.6667Z" fill="#6C6C6C"/>
<path fill-rule="evenodd" clip-rule="evenodd" d="M18.503 18.3079C18.3502 18.3079 18.1962 18.2682 18.055 18.1854L13.6567 15.5616C13.393 15.4029 13.2297 15.1171 13.2297 14.8091V9.15308C13.2297 8.67008 13.6217 8.27808 14.1047 8.27808C14.5888 8.27808 14.9797 8.67008 14.9797 9.15308V14.3121L18.9522 16.6804C19.3663 16.9289 19.5028 17.4656 19.2555 17.8809C19.091 18.1551 18.8005 18.3079 18.503 18.3079Z" fill="#6C6C6C"/>
</svg>
