<svg width="52" height="52" viewBox="0 0 52 52" fill="none" xmlns="http://www.w3.org/2000/svg">
<g clip-path="url(#clip0_55_56)">
<path d="M42.4127 18.0657H33.6784L23.811 10.2456C23.6625 10.1282 23.4797 10.0645 23.2901 10.0645H18.1027C17.4963 10.0645 17.0845 10.7195 17.3462 11.2663L20.6079 18.0657H8.46174L4.88884 14.5339C4.73116 14.3771 4.55503 14.2806 4.29839 14.2916L0.837871 14.2949C0.374903 14.2957 0 14.6706 0 15.1336V28.4154C0 28.7593 0.209677 29.0679 0.529226 29.1954L4.33026 30.7051C4.42923 30.7437 4.53406 30.7638 4.63974 30.7638H20.7673L17.3101 40.8241C17.1248 41.3626 17.5399 41.9354 18.1027 41.9354H23.2901C23.5275 41.9354 23.7531 41.8348 23.9125 41.6595L33.7623 30.7638H42.4127C45.7801 30.7638 52 28.1462 52 24.4148C52 20.6834 45.7801 18.0657 42.4127 18.0657ZM19.4354 11.7419H22.9983L30.9769 18.0657H22.469L19.4354 11.7419ZM22.9177 40.258H19.2777L22.5412 30.7638H31.5011L22.9177 40.258ZM42.4127 29.0864H4.79994L1.67742 27.8459V15.9715L3.95535 15.969L7.52826 19.5008C7.68594 19.6568 7.89729 19.7432 8.11787 19.7432H42.4135C45.2484 19.7432 50.3234 22.0983 50.3234 24.4148C50.3226 26.7313 45.2484 29.0864 42.4127 29.0864Z" fill="#495AB4"/>
<path d="M42.4125 23.5175H40.7351C40.2721 23.5175 39.8964 23.1426 39.8964 22.6788C39.8964 22.215 40.2721 21.8401 40.7351 21.8401H42.4125C42.8755 21.8401 43.2512 22.215 43.2512 22.6788C43.2512 23.1426 42.8763 23.5175 42.4125 23.5175Z" fill="#495AB4"/>
<path d="M37.1966 23.5175H33.6573C33.1943 23.5175 32.8186 23.1426 32.8186 22.6788C32.8186 22.215 33.1943 21.8401 33.6573 21.8401H37.1966C37.6596 21.8401 38.0353 22.215 38.0353 22.6788C38.0353 23.1426 37.6596 23.5175 37.1966 23.5175ZM30.1179 23.5175H26.5794C26.1164 23.5175 25.7407 23.1426 25.7407 22.6788C25.7407 22.215 26.1164 21.8401 26.5794 21.8401H30.1179C30.5809 21.8401 30.9566 22.215 30.9566 22.6788C30.9566 23.1426 30.5809 23.5175 30.1179 23.5175ZM23.04 23.5175H19.5007C19.0377 23.5175 18.662 23.1426 18.662 22.6788C18.662 22.215 19.0377 21.8401 19.5007 21.8401H23.04C23.503 21.8401 23.8788 22.215 23.8788 22.6788C23.8788 23.1426 23.503 23.5175 23.04 23.5175ZM15.9622 23.5175H12.4228C11.9598 23.5175 11.5841 23.1426 11.5841 22.6788C11.5841 22.215 11.9598 21.8401 12.4228 21.8401H15.9622C16.4251 21.8401 16.8009 22.215 16.8009 22.6788C16.8009 23.1426 16.4251 23.5175 15.9622 23.5175Z" fill="#495AB4"/>
<path d="M8.88436 23.5175H7.20694C6.74397 23.5175 6.36823 23.1426 6.36823 22.6788C6.36823 22.215 6.74397 21.8401 7.20694 21.8401H8.88436C9.34732 21.8401 9.72307 22.215 9.72307 22.6788C9.72307 23.1426 9.34732 23.5175 8.88436 23.5175Z" fill="#495AB4"/>
<path d="M14.7739 34.6135H7.01168C6.54872 34.6135 6.17297 34.2386 6.17297 33.7748C6.17297 33.3109 6.54872 32.936 7.01168 32.936H14.7739C15.2369 32.936 15.6126 33.3109 15.6126 33.7748C15.6126 34.2386 15.2369 34.6135 14.7739 34.6135Z" fill="#495AB4"/>
<path d="M13.2255 38.4716H5.46322C5.00025 38.4716 4.62451 38.0967 4.62451 37.6329C4.62451 37.1691 5.00025 36.7942 5.46322 36.7942H13.2255C13.6884 36.7942 14.0642 37.1691 14.0642 37.6329C14.0642 38.0967 13.6884 38.4716 13.2255 38.4716Z" fill="#495AB4"/>
</g>
<defs>
<clipPath id="clip0_55_56">
<rect width="52" height="52" fill="white"/>
</clipPath>
</defs>
</svg>
