<svg width="52" height="52" viewBox="0 0 52 52" fill="none" xmlns="http://www.w3.org/2000/svg">
<g clip-path="url(#clip0_55_91)">
<path d="M12.1334 35.5334C10.6976 35.5334 9.53345 36.6976 9.53345 38.1334C9.53345 39.5693 10.6975 40.7334 12.1334 40.7334C13.5694 40.7334 14.7334 39.5694 14.7334 38.1334C14.7318 36.6982 13.5687 35.535 12.1334 35.5334ZM12.1334 39.0001C11.6548 39.0001 11.2668 38.6121 11.2668 38.1334C11.2668 37.6548 11.6548 37.2668 12.1334 37.2668C12.6121 37.2668 13.0001 37.6548 13.0001 38.1334C12.9996 38.6119 12.6119 38.9996 12.1334 39.0001Z" fill="#495AB4"/>
<path d="M39.8666 35.5334C38.4307 35.5334 37.2666 36.6976 37.2666 38.1334C37.2666 39.5693 38.4307 40.7334 39.8666 40.7334C41.3025 40.7334 42.4666 39.5694 42.4666 38.1334C42.4651 36.6982 41.3019 35.535 39.8666 35.5334ZM39.8666 39.0001C39.3879 39.0001 39 38.6121 39 38.1334C39 37.6548 39.388 37.2668 39.8666 37.2668C40.3453 37.2668 40.7332 37.6548 40.7332 38.1334C40.7328 38.6119 40.3451 38.9996 39.8666 39.0001Z" fill="#495AB4"/>
<path d="M51.3394 23.1969L45.3693 16.4735C44.8747 15.9165 44.165 15.5985 43.4201 15.6H35.5334V10.4C35.5318 8.96477 34.3686 7.80157 32.9334 7.80005H2.6C1.16472 7.80157 0.00152352 8.96477 8.46389e-08 10.4V32.9334C-0.000101478 33.1633 0.0912032 33.3837 0.253805 33.5463C0.416305 33.7088 0.636797 33.8001 0.866735 33.8001H1.73337V36.4002C1.73489 37.8354 2.89809 38.9986 4.33337 39.0001H6.1359C6.56307 41.9841 9.11899 44.2001 12.1334 44.2001C15.1477 44.2001 17.7037 41.9841 18.1308 39.0001H33.8694C34.2965 41.9841 36.8525 44.2001 39.8668 44.2001C42.8812 44.2001 45.4371 41.9841 45.8643 39.0001H49.4C50.8353 38.9986 51.9985 37.8354 52 36.4002V24.9252C51.9994 24.2875 51.7643 23.6724 51.3394 23.1969ZM1.73337 32.0667V10.4C1.73387 9.92159 2.12154 9.53382 2.6 9.53342H32.9334C33.4118 9.53392 33.7996 9.92159 33.8 10.4V32.0667H1.73337ZM6.1359 37.2667H4.33337C3.85491 37.2662 3.46714 36.8785 3.46673 36.4V33.8H7.89588C6.94383 34.7306 6.32521 35.949 6.1359 37.2667ZM12.1334 42.4667C9.74015 42.4667 7.8 40.5265 7.8 38.1333C7.8 35.7401 9.74015 33.8 12.1334 33.8C14.5266 33.8 16.4667 35.7402 16.4667 38.1334C16.4639 40.5254 14.5254 42.4639 12.1334 42.4667ZM20.8 37.2667H18.1307C17.9414 35.949 17.3229 34.7305 16.3709 33.8H20.8V37.2667ZM28.6 37.2667H22.5334V33.8H28.6V37.2667ZM33.8693 37.2667H30.3334V33.8H35.6291C34.6771 34.7306 34.0586 35.949 33.8693 37.2667ZM39.8666 42.4667C37.4734 42.4667 35.5333 40.5265 35.5333 38.1333C35.5333 35.7401 37.4733 33.7999 39.8666 33.7999C42.2598 33.7999 44.2 35.7401 44.2 38.1333C44.1972 40.5254 42.2587 42.4639 39.8666 42.4667ZM50.2666 36.4C50.2661 36.8785 49.8785 37.2663 49.4 37.2667H45.8641C45.432 34.2855 42.8791 32.0721 39.8666 32.0667H35.5333V17.3334H39V26C39.0015 27.4353 40.1647 28.5985 41.6 28.6H50.2666V36.4ZM50.2666 26.8667H41.6C41.1215 26.8662 40.7338 26.4785 40.7334 26V17.3334H43.4201C43.6689 17.332 43.9064 17.4374 44.0722 17.6229L50.0445 24.3488C50.1867 24.5073 50.2657 24.7123 50.2667 24.9252V26.8667H50.2666Z" fill="#495AB4"/>
</g>
<defs>
<clipPath id="clip0_55_91">
<rect width="52" height="52" fill="white"/>
</clipPath>
</defs>
</svg>
