<svg width="45" height="44" viewBox="0 0 45 44" fill="none" xmlns="http://www.w3.org/2000/svg">
<g clip-path="url(#clip0_55_162)">
<path d="M22.5 17.7891C26.6226 17.7891 29.9766 14.4351 29.9766 10.3125C29.9766 6.18991 26.6226 2.83594 22.5 2.83594C18.3774 2.83594 15.0234 6.18991 15.0234 10.3125C15.0234 14.4351 18.3774 17.7891 22.5 17.7891ZM22.5 5.41406C25.201 5.41406 27.3984 7.61148 27.3984 10.3125C27.3984 13.0135 25.201 15.2109 22.5 15.2109C19.799 15.2109 17.6016 13.0135 17.6016 10.3125C17.6016 7.61148 19.799 5.41406 22.5 5.41406Z" fill="#495AB4"/>
<path d="M37.625 17.7891C40.2312 17.7891 42.3516 15.6687 42.3516 13.0625C42.3516 10.4563 40.2312 8.33594 37.625 8.33594C35.0188 8.33594 32.8984 10.4563 32.8984 13.0625C32.8984 15.6687 35.0188 17.7891 37.625 17.7891ZM37.625 10.9141C38.8096 10.9141 39.7734 11.8779 39.7734 13.0625C39.7734 14.2471 38.8096 15.2109 37.625 15.2109C36.4404 15.2109 35.4766 14.2471 35.4766 13.0625C35.4766 11.8779 36.4404 10.9141 37.625 10.9141Z" fill="#495AB4"/>
<path d="M38.6648 20.7109H36.6711C34.3216 20.7109 32.2935 22.099 31.3694 24.0927C29.4666 22.0156 26.7335 20.7109 23.7013 20.7109H21.2988C18.2665 20.7109 15.5335 22.0156 13.6307 24.0927C12.7065 22.099 10.6784 20.7109 8.32891 20.7109H6.33516C3.11766 20.7109 0.5 23.3128 0.5 26.5109V35.8961C0.5 37.2845 1.63386 38.4141 3.02759 38.4141H10.9104C11.0426 39.9523 12.3361 41.1641 13.9081 41.1641H31.0919C32.6639 41.1641 33.9574 39.9523 34.0897 38.4141H41.8824C43.3258 38.4141 44.5001 37.2445 44.5001 35.8067V26.5109C44.5 23.3128 41.8823 20.7109 38.6648 20.7109ZM3.07812 26.5109C3.07812 24.7344 4.53923 23.2891 6.33516 23.2891H8.32891C10.1248 23.2891 11.5859 24.7344 11.5859 26.5109V27.3935C10.7191 29.6506 10.8984 31.0032 10.8984 35.8359H3.07812V26.5109ZM31.5234 38.1544C31.5234 38.3924 31.3299 38.5859 31.0919 38.5859H13.9081C13.6701 38.5859 13.4766 38.3923 13.4766 38.1544V31.1113C13.4766 26.7981 16.9856 23.2891 21.2987 23.2891H23.7012C28.0144 23.2891 31.5234 26.7981 31.5234 31.1112V38.1544ZM41.9219 35.8067C41.9219 35.8511 42.4024 35.8359 34.1016 35.8359C34.1016 30.9675 34.2795 29.6469 33.4141 27.3935V26.5109C33.4141 24.7344 34.8752 23.2891 36.6711 23.2891H38.6648C40.4608 23.2891 41.9219 24.7344 41.9219 26.5109V35.8067Z" fill="#495AB4"/>
<path d="M7.375 17.7891C9.98123 17.7891 12.1016 15.6687 12.1016 13.0625C12.1016 10.4563 9.98123 8.33594 7.375 8.33594C4.76877 8.33594 2.64844 10.4563 2.64844 13.0625C2.64844 15.6687 4.76877 17.7891 7.375 17.7891ZM7.375 10.9141C8.55965 10.9141 9.52344 11.8779 9.52344 13.0625C9.52344 14.2471 8.55965 15.2109 7.375 15.2109C6.19035 15.2109 5.22656 14.2471 5.22656 13.0625C5.22656 11.8779 6.19035 10.9141 7.375 10.9141Z" fill="#495AB4"/>
</g>
<defs>
<clipPath id="clip0_55_162">
<rect width="44" height="44" fill="white" transform="translate(0.5)"/>
</clipPath>
</defs>
</svg>
