<svg width="52" height="52" viewBox="0 0 52 52" fill="none" xmlns="http://www.w3.org/2000/svg">
<g clip-path="url(#clip0_55_73)">
<path d="M48.1589 30.4957C48.1581 30.3628 48.12 30.2248 48.0522 30.1109L45.8828 26.4562C45.6646 26.0893 45.2643 25.8611 44.8375 25.8611H27.2652C26.8391 25.8611 26.4388 26.0885 26.2206 26.4547L24.0421 30.1097C24.0402 30.1133 24.0386 30.1172 24.0362 30.1208C24.0322 30.128 24.0279 30.1351 24.0239 30.1422H20.0098C19.5889 30.1422 19.2481 30.4834 19.2481 30.904C19.2481 31.3249 19.5889 31.6657 20.0098 31.6657H23.9346V33.2268H20.0098C19.5889 33.2268 19.2481 33.568 19.2481 33.9885C19.2481 34.4095 19.5889 34.7502 20.0098 34.7502H23.9346V41.0725H20.0098C19.5889 41.0725 19.2481 41.4137 19.2481 41.8342C19.2481 42.2552 19.5889 42.5959 20.0098 42.5959H23.9346V44.1571H20.0098C19.5889 44.1571 19.2481 44.4983 19.2481 44.9188C19.2481 45.3397 19.5889 45.6805 20.0098 45.6805H23.9346V50.4373H7.43112C6.2457 50.4373 5.28125 49.4728 5.28125 48.2874V3.67331C5.28125 2.48788 6.2457 1.52344 7.43112 1.52344H36.2074L41.9286 7.24387V23.1717C41.9286 23.5927 42.2698 23.9334 42.6904 23.9334C43.1109 23.9334 43.4521 23.5927 43.4521 23.1717V6.92847C43.4521 6.72614 43.3719 6.53253 43.2291 6.38971L37.0612 0.222961C36.9184 0.0801391 36.7248 0 36.5228 0H7.43112C5.40582 0 3.75781 1.64801 3.75781 3.67331V48.287C3.75781 50.3127 5.40582 51.9603 7.43112 51.9603H25.0883C25.1966 51.9853 25.3085 52 25.4236 52H46.67C47.4908 52 48.1589 51.3319 48.1589 50.5111V30.4997C48.1589 30.4985 48.1589 30.4969 48.1589 30.4957ZM46.0594 29.738H39.5086L39.0976 27.3846H44.6621L46.0594 29.738ZM34.3119 31.2614H38.107V36.6577L36.6645 35.583C36.3943 35.3818 36.0241 35.3818 35.7544 35.583L34.3119 36.6577V31.2614ZM37.5511 27.3846L37.9622 29.738H34.4412L34.8117 27.3846H37.5511ZM25.4581 50.4766V30.7096L27.4397 27.3846H33.2697L32.8987 29.738H28.5014C28.0808 29.738 27.7397 30.0788 27.7397 30.4997C27.7397 30.9206 28.0808 31.2614 28.5014 31.2614H32.7884V38.1748C32.7884 38.4628 32.9507 38.7263 33.2082 38.8556C33.4656 38.9845 33.7739 38.9579 34.0052 38.7858L36.2094 37.1437L38.4136 38.7858C38.5477 38.8853 38.7076 38.9365 38.8687 38.9365C38.9853 38.9365 39.1024 38.9099 39.2103 38.8556C39.4677 38.7263 39.6304 38.4628 39.6304 38.1748V31.2614H46.6354V50.4766H25.4581Z" fill="#495AB4"/>
<path d="M17.7862 4.50011C17.4886 4.20256 17.0066 4.20296 16.709 4.50011L15.3352 5.87398C14.5592 5.19915 13.5467 4.78893 12.4395 4.78893C10.0027 4.78893 8.0199 6.77178 8.0199 9.20848C8.0199 11.6452 10.0027 13.628 12.4395 13.628C14.8766 13.628 16.859 11.6456 16.859 9.20848C16.859 8.4301 16.6559 7.69854 16.3012 7.06258L17.7866 5.57763C18.0837 5.28008 18.0837 4.79766 17.7862 4.50011ZM15.3356 9.20848C15.3356 10.8053 14.0367 12.1046 12.4395 12.1046C10.8426 12.1046 9.54333 10.8053 9.54333 9.20848C9.54333 7.61165 10.8426 6.31237 12.4395 6.31237C13.1266 6.31237 13.7578 6.55318 14.2549 6.95427L12.587 8.62212L12.3688 8.40432C12.0713 8.10677 11.5893 8.10677 11.2917 8.40432C10.9942 8.70186 10.9942 9.18428 11.2917 9.48143L12.0483 10.238C12.1971 10.3868 12.3918 10.4614 12.587 10.4614C12.7818 10.4614 12.9766 10.3868 13.1254 10.238L15.157 8.20675C15.2725 8.51897 15.3356 8.85619 15.3356 9.20848Z" fill="#495AB4"/>
<path d="M36.993 6.9043H20.0094C19.5889 6.9043 19.2477 7.24548 19.2477 7.66602C19.2477 8.08694 19.5889 8.42773 20.0094 8.42773H36.993C37.4139 8.42773 37.7547 8.08694 37.7547 7.66602C37.7547 7.24548 37.4139 6.9043 36.993 6.9043Z" fill="#495AB4"/>
<path d="M20.0094 11.5122H26.7197C27.1406 11.5122 27.4814 11.1714 27.4814 10.7505C27.4814 10.33 27.1406 9.98877 26.7197 9.98877H20.0094C19.5889 9.98877 19.2477 10.33 19.2477 10.7505C19.2477 11.1714 19.5889 11.5122 20.0094 11.5122Z" fill="#495AB4"/>
<path d="M17.7862 15.8926C17.4886 15.595 17.0066 15.595 16.709 15.8926L15.3352 17.2665C14.5592 16.5912 13.5467 16.1814 12.4395 16.1814C10.0027 16.1814 8.0199 18.1639 8.0199 20.601C8.0199 23.0381 10.0027 25.0205 12.4395 25.0205C14.8766 25.0205 16.859 23.0381 16.859 20.601C16.859 19.8226 16.6559 19.091 16.3012 18.4551L17.7866 16.9701C18.0837 16.6722 18.0837 16.1901 17.7862 15.8926ZM15.3356 20.601C15.3356 22.1978 14.0367 23.4971 12.4395 23.4971C10.8426 23.4971 9.54333 22.1978 9.54333 20.601C9.54333 19.0041 10.8426 17.7048 12.4395 17.7048C13.1266 17.7048 13.7578 17.9457 14.2549 18.3468L12.587 20.0146L12.3688 19.7968C12.0713 19.4993 11.5893 19.4993 11.2917 19.7968C10.9942 20.0943 10.9942 20.5768 11.2917 20.8739L12.0483 21.6305C12.1971 21.7793 12.3918 21.8538 12.587 21.8538C12.7818 21.8538 12.9766 21.7793 13.1254 21.6305L15.157 19.5992C15.2725 19.9115 15.3356 20.2491 15.3356 20.601Z" fill="#495AB4"/>
<path d="M37.7547 19.0583C37.7547 18.6378 37.4139 18.2966 36.993 18.2966H20.0094C19.5889 18.2966 19.2477 18.6378 19.2477 19.0583C19.2477 19.4793 19.5889 19.8201 20.0094 19.8201H36.993C37.4139 19.8201 37.7547 19.4793 37.7547 19.0583Z" fill="#495AB4"/>
<path d="M20.0094 21.3813C19.5889 21.3813 19.2477 21.7225 19.2477 22.1431C19.2477 22.564 19.5889 22.9048 20.0094 22.9048H26.7197C27.1406 22.9048 27.4814 22.564 27.4814 22.1431C27.4814 21.7225 27.1406 21.3813 26.7197 21.3813H20.0094Z" fill="#495AB4"/>
<path d="M12.4395 28.0264C10.0027 28.0264 8.0199 30.0092 8.0199 32.4459C8.0199 34.883 10.0027 36.8655 12.4395 36.8655C14.8766 36.8655 16.859 34.883 16.859 32.4459C16.859 30.0092 14.8766 28.0264 12.4395 28.0264ZM12.4395 35.342C10.8426 35.342 9.54333 34.0428 9.54333 32.4459C9.54333 30.8491 10.8426 29.5498 12.4395 29.5498C14.0367 29.5498 15.3356 30.8491 15.3356 32.4459C15.3356 34.0428 14.0363 35.342 12.4395 35.342Z" fill="#495AB4"/>
<path d="M12.4395 38.9568C10.0027 38.9568 8.0199 40.9396 8.0199 43.3767C8.0199 45.8134 10.0027 47.7963 12.4395 47.7963C14.8766 47.7963 16.859 45.8134 16.859 43.3767C16.859 40.9396 14.8766 38.9568 12.4395 38.9568ZM12.4395 46.2725C10.8426 46.2725 9.54333 44.9736 9.54333 43.3763C9.54333 41.7795 10.8426 40.4802 12.4395 40.4802C14.0367 40.4802 15.3356 41.7795 15.3356 43.3763C15.3356 44.9736 14.0363 46.2725 12.4395 46.2725Z" fill="#495AB4"/>
</g>
<defs>
<clipPath id="clip0_55_73">
<rect width="52" height="52" fill="white"/>
</clipPath>
</defs>
</svg>
