<svg width="52" height="52" viewBox="0 0 52 52" fill="none" xmlns="http://www.w3.org/2000/svg">
<g clip-path="url(#clip0_55_295)">
<path d="M46.7461 33.8956V4.21821C46.7461 2.54264 45.3903 1.17957 43.7239 1.17957H16.7141C16.1532 1.17957 15.6985 1.63426 15.6985 2.19519C15.6985 2.75612 16.1532 3.21082 16.7141 3.21082H43.7238C44.2609 3.21082 44.7147 3.67211 44.7147 4.21821V10.8275H2.03125V4.21821C2.03125 3.67221 2.48503 3.21082 3.0222 3.21082H7.59383C8.15476 3.21082 8.60945 2.75612 8.60945 2.19519C8.60945 1.63426 8.15476 1.17957 7.59383 1.17957H3.0222C1.35576 1.17957 0 2.54264 0 4.21821V38.1485C0 39.8241 1.35576 41.1872 3.0222 41.1872H34.4936C34.47 41.4503 34.4573 41.7165 34.4573 41.9856C34.4573 46.8573 38.392 50.8206 43.2286 50.8206C48.0651 50.8206 52 46.8572 52 41.9855C52 38.3745 49.8363 35.2632 46.7461 33.8956ZM3.0222 39.1558C2.48503 39.1558 2.03125 38.6945 2.03125 38.1484V12.8586H44.7148V33.2808C44.2316 33.1974 43.7351 33.1535 43.2287 33.1535C39.3746 33.1535 36.0931 35.6694 34.919 39.1558H3.0222ZM43.2287 48.7892C39.5122 48.7892 36.4887 45.7371 36.4887 41.9855C36.4887 38.2356 39.5123 35.1847 43.2287 35.1847C46.9452 35.1847 49.9688 38.2356 49.9688 41.9855C49.9688 45.7371 46.9451 48.7892 43.2287 48.7892Z" fill="#495AB4"/>
<path d="M36.3619 7.01904C36.3619 6.45811 35.9071 6.00342 35.3463 6.00342H35.3434C34.7826 6.00342 34.3292 6.45811 34.3292 7.01904C34.3292 7.57997 34.7854 8.03467 35.3464 8.03467C35.9073 8.03467 36.3619 7.57997 36.3619 7.01904Z" fill="#495AB4"/>
<path d="M41.2676 7.01904C41.2676 6.45811 40.8128 6.00342 40.252 6.00342H40.2462C39.6854 6.00342 39.2334 6.45811 39.2334 7.01904C39.2334 7.57997 39.691 8.03467 40.2519 8.03467C40.8127 8.03467 41.2676 7.57997 41.2676 7.01904Z" fill="#495AB4"/>
<path d="M31.4592 7.01904C31.4592 6.45811 31.0044 6.00342 30.4436 6.00342H30.4378C29.877 6.00342 29.425 6.45811 29.425 7.01904C29.425 7.57997 29.8827 8.03467 30.4435 8.03467C31.0043 8.03467 31.4592 7.57997 31.4592 7.01904Z" fill="#495AB4"/>
<path d="M5.47858 7.01904C5.47858 7.57997 5.93327 8.03467 6.4942 8.03467H20.1487C20.7096 8.03467 21.1643 7.57997 21.1643 7.01904C21.1643 6.45811 20.7096 6.00342 20.1487 6.00342H6.4942C5.93327 6.00342 5.47858 6.45811 5.47858 7.01904Z" fill="#495AB4"/>
<path d="M38.5238 31.4582C38.5238 27.3832 36.9499 23.5525 34.0923 20.6714C34.091 20.6701 34.0896 20.6687 34.0882 20.6674C34.0878 20.667 34.0875 20.6665 34.0871 20.6662C34.0866 20.6657 34.0861 20.6653 34.0856 20.6648C31.232 17.7913 27.4423 16.2062 23.4093 16.1983C23.4019 16.1981 23.3947 16.1971 23.3872 16.1971C23.3817 16.1971 23.3764 16.1979 23.371 16.198C19.3297 16.2001 15.5313 17.7864 12.6746 20.6647C12.6743 20.665 12.674 20.6652 12.6736 20.6656C12.6733 20.6659 12.6731 20.6661 12.6729 20.6664C12.6713 20.6679 12.6697 20.6694 12.6682 20.6711C9.80839 23.5513 8.23346 27.3823 8.23346 31.4583C8.23346 32.0193 8.68815 32.474 9.24908 32.474H37.5081C38.0691 32.4739 38.5238 32.0192 38.5238 31.4582ZM20.1741 30.4426C20.2099 30.1184 20.2947 29.7995 20.4274 29.4955C20.7731 28.6953 21.4073 28.0806 22.2131 27.7647C23.0113 27.4518 23.8827 27.47 24.6672 27.816C25.7433 28.2909 26.4586 29.3061 26.5848 30.4426H20.1741ZM28.6226 30.4426C28.5131 28.8449 27.6839 27.3721 26.3713 26.4561L27.6527 23.5033C27.8759 22.9888 27.6399 22.3906 27.1254 22.1674C26.6107 21.9441 26.0126 22.1802 25.7893 22.6947L24.5128 25.6363C23.5057 25.41 22.4546 25.4881 21.4716 25.8736C20.158 26.3887 19.125 27.3888 18.5643 28.6865C18.3199 29.2465 18.1764 29.84 18.1358 30.4426H10.3027C10.5129 27.6301 11.5953 24.995 13.4167 22.8567L14.283 23.7301C14.4816 23.9303 14.7428 24.0306 15.0041 24.0306C15.2626 24.0306 15.5213 23.9324 15.7193 23.736C16.1176 23.341 16.1202 22.698 15.7251 22.2997L14.846 21.4135C16.9669 19.5733 19.5818 18.4803 22.3717 18.2678V19.5175C22.3717 20.0785 22.8264 20.5332 23.3873 20.5332C23.9482 20.5332 24.4029 20.0785 24.4029 19.5175V18.2692C27.1864 18.4847 29.7957 19.5766 31.9134 21.4131L31.0329 22.2992C30.6375 22.697 30.6397 23.3401 31.0375 23.7355C31.2356 23.9323 31.4945 24.0308 31.7534 24.0308C32.0143 24.0308 32.2753 23.9308 32.4739 23.7309L33.3428 22.8565C35.163 24.9952 36.2447 27.6305 36.4548 30.4428H28.6226V30.4426Z" fill="#495AB4"/>
<path d="M46.8716 38.8502C46.4402 38.4919 45.7999 38.5513 45.4415 38.9827L42.1872 42.9011L40.8916 41.7939C40.465 41.4294 39.8241 41.4798 39.4596 41.9061C39.0952 42.3325 39.1455 42.9737 39.5718 43.3381L41.6504 45.1144C41.8351 45.2722 42.0693 45.3579 42.3103 45.3579C42.339 45.3579 42.3679 45.3567 42.3968 45.3543C42.6677 45.3311 42.9179 45.2003 43.0916 44.9912L47.004 40.2804C47.3625 39.8489 47.3032 39.2086 46.8716 38.8502Z" fill="#495AB4"/>
<path d="M12.1539 3.21082C12.7148 3.21082 13.1695 2.75612 13.1695 2.19519C13.1695 1.63426 12.7148 1.17957 12.1539 1.17957H12.1481C11.5872 1.17957 11.1353 1.63426 11.1353 2.19519C11.1353 2.75612 11.593 3.21082 12.1539 3.21082Z" fill="#495AB4"/>
</g>
<defs>
<clipPath id="clip0_55_295">
<rect width="52" height="52" fill="white"/>
</clipPath>
</defs>
</svg>
