<svg width="52" height="52" viewBox="0 0 52 52" fill="none" xmlns="http://www.w3.org/2000/svg">
<path fill-rule="evenodd" clip-rule="evenodd" d="M44.6875 47.125H47.9375C48.386 47.125 48.75 47.489 48.75 47.9375C48.75 48.386 48.386 48.75 47.9375 48.75H4.0625C3.614 48.75 3.25 48.386 3.25 47.9375V4.0625C3.25 3.614 3.614 3.25 4.0625 3.25C4.511 3.25 4.875 3.614 4.875 4.0625V47.125H7.3125V33.3125C7.3125 32.864 7.6765 32.5 8.125 32.5H14.625C15.0735 32.5 15.4375 32.864 15.4375 33.3125V47.125H17.0625V30.0625C17.0625 29.614 17.4265 29.25 17.875 29.25H24.375C24.8235 29.25 25.1875 29.614 25.1875 30.0625V35.75C25.1875 36.1985 24.8235 36.5625 24.375 36.5625C23.9265 36.5625 23.5625 36.1985 23.5625 35.75V30.875H18.6875V47.125H23.5625V39C23.5625 38.5515 23.9265 38.1875 24.375 38.1875C24.8235 38.1875 25.1875 38.5515 25.1875 39V47.125H26.8125V26.8125C26.8125 26.364 27.1765 26 27.625 26H34.125C34.5735 26 34.9375 26.364 34.9375 26.8125V47.125H36.5625V34.125C36.5625 33.6765 36.9265 33.3125 37.375 33.3125C37.8235 33.3125 38.1875 33.6765 38.1875 34.125V47.125H43.0625V24.375H38.1875V30.875C38.1875 31.3235 37.8235 31.6875 37.375 31.6875C36.9265 31.6875 36.5625 31.3235 36.5625 30.875V23.5625C36.5625 23.114 36.9265 22.75 37.375 22.75H43.875C44.3235 22.75 44.6875 23.114 44.6875 23.5625V47.125ZM8.9375 34.125V47.125H13.8125V34.125H8.9375ZM28.4375 27.625V47.125H33.3125V27.625H28.4375ZM26 4.0625C20.6188 4.0625 16.25 8.43131 16.25 13.8125C16.25 19.1937 20.6188 23.5625 26 23.5625C31.3812 23.5625 35.75 19.1937 35.75 13.8125C35.75 8.43131 31.3812 4.0625 26 4.0625ZM26 5.6875C30.4842 5.6875 34.125 9.32831 34.125 13.8125C34.125 18.2967 30.4842 21.9375 26 21.9375C21.5158 21.9375 17.875 18.2967 17.875 13.8125C17.875 9.32831 21.5158 5.6875 26 5.6875ZM30.7369 13.7329C29.5718 13.0601 28.08 13.4599 27.4072 14.625C26.7345 15.7901 27.1343 17.2819 28.2994 17.9546C29.4645 18.6274 30.9563 18.2276 31.629 17.0625C32.3018 15.8974 31.902 14.4056 30.7369 13.7329ZM26.9214 10.5918L23.6714 16.2207C23.4471 16.6091 23.5804 17.1064 23.9688 17.3306C24.3571 17.5549 24.8544 17.4216 25.0786 17.0332L28.3286 11.4043C28.5529 11.0159 28.4196 10.5186 28.0312 10.2944C27.6429 10.0701 27.1456 10.2034 26.9214 10.5918ZM29.9244 15.1401C30.3128 15.3644 30.446 15.8616 30.2217 16.25C29.9975 16.6384 29.5003 16.7716 29.1119 16.5474C28.7235 16.3231 28.5903 15.8259 28.8145 15.4375C29.0387 15.0491 29.536 14.9159 29.9244 15.1401ZM23.7006 9.67038C22.5355 8.99763 21.0438 9.39738 20.371 10.5625C19.6982 11.7276 20.098 13.2194 21.2631 13.8921C22.4282 14.5649 23.92 14.1651 24.5928 13C25.2655 11.8349 24.8657 10.3431 23.7006 9.67038ZM22.8881 11.0776C23.2765 11.3019 23.4097 11.7991 23.1855 12.1875C22.9613 12.5759 22.464 12.7091 22.0756 12.4849C21.6873 12.2606 21.554 11.7634 21.7783 11.375C22.0025 10.9866 22.4998 10.8534 22.8881 11.0776Z" fill="#495AB4"/>
</svg>
