<svg width="52" height="52" viewBox="0 0 52 52" fill="none" xmlns="http://www.w3.org/2000/svg">
<path d="M21.9375 30.875H5.6875C5.47201 30.875 5.26535 30.9606 5.11298 31.113C4.9606 31.2653 4.875 31.472 4.875 31.6875V41.4375C4.875 41.653 4.9606 41.8597 5.11298 42.012C5.26535 42.1644 5.47201 42.25 5.6875 42.25H21.9375C22.153 42.25 22.3597 42.1644 22.512 42.012C22.6644 41.8597 22.75 41.653 22.75 41.4375V31.6875C22.75 31.472 22.6644 31.2653 22.512 31.113C22.3597 30.9606 22.153 30.875 21.9375 30.875ZM21.125 40.625H6.5V32.5H21.125V40.625Z" fill="#495AB4"/>
<path d="M8.9375 35.7501H9.75C9.96549 35.7501 10.1722 35.6645 10.3245 35.5121C10.4769 35.3598 10.5625 35.1531 10.5625 34.9376C10.5625 34.7221 10.4769 34.5155 10.3245 34.3631C10.1722 34.2107 9.96549 34.1251 9.75 34.1251H8.9375C8.72201 34.1251 8.51535 34.2107 8.36298 34.3631C8.2106 34.5155 8.125 34.7221 8.125 34.9376C8.125 35.1531 8.2106 35.3598 8.36298 35.5121C8.51535 35.6645 8.72201 35.7501 8.9375 35.7501Z" fill="#495AB4"/>
<path d="M12.1875 35.7501H18.6875C18.903 35.7501 19.1097 35.6645 19.262 35.5121C19.4144 35.3598 19.5 35.1531 19.5 34.9376C19.5 34.7221 19.4144 34.5155 19.262 34.3631C19.1097 34.2107 18.903 34.1251 18.6875 34.1251H12.1875C11.972 34.1251 11.7653 34.2107 11.613 34.3631C11.4606 34.5155 11.375 34.7221 11.375 34.9376C11.375 35.1531 11.4606 35.3598 11.613 35.5121C11.7653 35.6645 11.972 35.7501 12.1875 35.7501Z" fill="#495AB4"/>
<path d="M8.9375 39.0001H9.75C9.96549 39.0001 10.1722 38.9145 10.3245 38.7621C10.4769 38.6098 10.5625 38.4031 10.5625 38.1876C10.5625 37.9721 10.4769 37.7655 10.3245 37.6131C10.1722 37.4607 9.96549 37.3751 9.75 37.3751H8.9375C8.72201 37.3751 8.51535 37.4607 8.36298 37.6131C8.2106 37.7655 8.125 37.9721 8.125 38.1876C8.125 38.4031 8.2106 38.6098 8.36298 38.7621C8.51535 38.9145 8.72201 39.0001 8.9375 39.0001Z" fill="#495AB4"/>
<path d="M12.1875 39.0001H18.6875C18.903 39.0001 19.1097 38.9145 19.262 38.7621C19.4144 38.6098 19.5 38.4031 19.5 38.1876C19.5 37.9721 19.4144 37.7655 19.262 37.6131C19.1097 37.4607 18.903 37.3751 18.6875 37.3751H12.1875C11.972 37.3751 11.7653 37.4607 11.613 37.6131C11.4606 37.7655 11.375 37.9721 11.375 38.1876C11.375 38.4031 11.4606 38.6098 11.613 38.7621C11.7653 38.9145 11.972 39.0001 12.1875 39.0001Z" fill="#495AB4"/>
<path d="M49.7981 26.0326L43.875 24.2126V10.5626C43.875 10.4168 43.8357 10.2737 43.7612 10.1483L38.8862 2.02326C38.815 1.90142 38.7129 1.80049 38.5902 1.7306C38.4675 1.66072 38.3287 1.62435 38.1875 1.62513H7.3125C7.17134 1.62435 7.03245 1.66072 6.9098 1.7306C6.78715 1.80049 6.68504 1.90142 6.61375 2.02326L1.73875 10.1483C1.66433 10.2737 1.62504 10.4168 1.625 10.5626V44.6876C1.625 44.9031 1.7106 45.1098 1.86298 45.2622C2.01535 45.4145 2.22201 45.5001 2.4375 45.5001H31.3056C32.3412 46.6125 33.5515 47.5484 34.8887 48.2708L38.6181 50.2776C38.7352 50.3416 38.8665 50.3752 39 50.3752C39.1335 50.3752 39.2648 50.3416 39.3819 50.2776L43.1113 48.2708C45.3084 47.0893 47.1442 45.3343 48.4232 43.1925C49.7023 41.0508 50.3768 38.6023 50.375 36.1076V26.8126C50.3745 26.6381 50.3182 26.4683 50.2145 26.328C50.1107 26.1877 49.9648 26.0842 49.7981 26.0326ZM37.7244 3.25013L41.6244 9.75013H28.2913L26.9913 3.25013H37.7244ZM20.1663 3.25013H25.3337L26.6337 9.75013H18.8662L20.1663 3.25013ZM18.6875 11.3751H26.8125V19.5001H18.6875V11.3751ZM7.77562 3.25013H18.5088L17.2087 9.75013H3.87562L7.77562 3.25013ZM3.25 43.8751V11.3751H17.0625V20.3126C17.0625 20.5281 17.1481 20.7348 17.3005 20.8872C17.4528 21.0395 17.6595 21.1251 17.875 21.1251H27.625C27.8405 21.1251 28.0472 21.0395 28.1995 20.8872C28.3519 20.7348 28.4375 20.5281 28.4375 20.3126V11.3751H42.25V23.7089L39.2356 22.7826C39.0823 22.7339 38.9177 22.7339 38.7644 22.7826L28.2019 26.0326C28.0352 26.0842 27.8893 26.1877 27.7855 26.328C27.6818 26.4683 27.6255 26.6381 27.625 26.8126V36.1076C27.6243 38.8778 28.4566 41.5841 30.0137 43.8751H3.25ZM48.75 36.1076C48.7525 38.3093 48.1576 40.4704 47.0286 42.3605C45.8997 44.2507 44.279 45.7991 42.3394 46.8408L39 48.6364L35.6606 46.8408C33.721 45.7991 32.1003 44.2507 30.9714 42.3605C29.8424 40.4704 29.2475 38.3093 29.25 36.1076V27.4139L39 24.4158L48.75 27.4139V36.1076Z" fill="#495AB4"/>
<path d="M38.7611 26.1861L31.4486 28.4368C31.2826 28.4878 31.1374 28.5907 31.0342 28.7304C30.9309 28.87 30.8751 29.039 30.875 29.2127V36.11C30.8733 38.0176 31.389 39.89 32.3673 41.5277C33.3455 43.1654 34.7496 44.5071 36.4301 45.4099L38.6149 46.5864C38.7333 46.6501 38.8656 46.6834 39 46.6834C39.1344 46.6834 39.2668 46.6501 39.3851 46.5864L41.57 45.4099C43.2504 44.5071 44.6545 43.1654 45.6328 41.5277C46.611 39.89 47.1267 38.0176 47.125 36.11V29.2127C47.1247 29.0392 47.0689 28.8703 46.9656 28.7308C46.8624 28.5914 46.7172 28.4886 46.5514 28.4376L39.2389 26.187C39.0833 26.1388 38.9169 26.1385 38.7611 26.1861ZM45.5 29.8131V36.11C45.5014 37.7241 45.065 39.3083 44.2373 40.6941C43.4096 42.0798 42.2215 43.2151 40.7997 43.9791L39 44.9484L37.2003 43.9791C35.7785 43.215 34.5906 42.0797 33.7629 40.694C32.9352 39.3083 32.4987 37.7241 32.5 36.11V29.8131L39 27.8128L45.5 29.8131Z" fill="#495AB4"/>
<path d="M35.5121 35.9882C35.3588 35.8402 35.1536 35.7583 34.9406 35.7602C34.7275 35.762 34.5238 35.8475 34.3731 35.9981C34.2225 36.1488 34.137 36.3525 34.1352 36.5656C34.1333 36.7786 34.2152 36.9838 34.3632 37.1371L36.8007 39.5746C36.9531 39.7269 37.1597 39.8125 37.3751 39.8125C37.5906 39.8125 37.7972 39.7269 37.9496 39.5746L43.6371 33.8871C43.7851 33.7338 43.867 33.5286 43.8651 33.3156C43.8633 33.1025 43.7778 32.8988 43.6272 32.7481C43.4765 32.5975 43.2728 32.512 43.0597 32.5102C42.8467 32.5083 42.6414 32.5902 42.4882 32.7382L37.3751 37.8513L35.5121 35.9882Z" fill="#495AB4"/>
</svg>
