<svg width="52" height="52" viewBox="0 0 52 52" fill="none" xmlns="http://www.w3.org/2000/svg">
<g clip-path="url(#clip0_55_277)">
<path d="M26.1824 44.2731C16.1066 44.2731 7.90925 36.0758 7.90925 26C7.90925 15.9242 16.1066 7.72688 26.1824 7.72688C28.485 7.72688 30.7862 8.16806 32.9199 9.01144L32.1641 9.40591C30.8589 10.0879 30.0428 11.3736 29.9809 12.8451C29.9191 14.3161 30.6241 15.6655 31.8668 16.4543L43.0701 23.5687C44.3131 24.3581 45.8343 24.4226 47.1391 23.741C48.4443 23.0595 49.2606 21.7742 49.3228 20.3031L49.8843 7.04295C49.9465 5.57162 49.2416 4.22185 47.9988 3.43241C46.756 2.64296 45.2347 2.57867 43.9293 3.26036L41.1285 4.72306C36.7374 1.6313 31.5805 0 26.1824 0C23.5991 0 21.0503 0.375273 18.6064 1.11536C18.2038 1.23734 17.9762 1.66258 18.0982 2.06517C18.2202 2.46777 18.6451 2.69537 19.048 2.57339C21.3485 1.87667 23.7488 1.52344 26.1824 1.52344C31.4142 1.52344 36.405 3.15098 40.6157 6.23025C40.8497 6.40148 41.1609 6.42495 41.4179 6.29058L44.6343 4.61073C45.4515 4.18397 46.4039 4.22429 47.1818 4.71839C47.9599 5.21259 48.4012 6.05759 48.3622 6.97856L47.8007 20.2387C47.7617 21.1595 47.2507 21.964 46.4337 22.3907C45.6171 22.8172 44.6648 22.7769 43.8867 22.2826L32.6833 15.1682C31.9054 14.6744 31.4641 13.8299 31.5028 12.9091C31.5416 11.9878 32.0525 11.183 32.8691 10.7563L35.0213 9.633C35.2752 9.50056 35.4333 9.23691 35.4306 8.9506C35.4278 8.6643 35.2649 8.40369 35.0087 8.27592C32.2883 6.91996 29.2362 6.20323 26.1823 6.20323C15.2664 6.20323 6.38571 15.0839 6.38571 25.9998C6.38571 36.9157 15.2664 45.7964 26.1823 45.7964C27.4725 45.7964 28.5223 46.8461 28.5223 48.1364C28.5223 49.4266 27.4726 50.4766 26.1824 50.4766C19.6446 50.4766 13.4982 47.9307 8.87541 43.308C4.25198 38.6845 1.70581 32.5378 1.70581 26C1.70581 19.4622 4.25198 13.3155 8.87531 8.69213C11.0378 6.53057 13.5306 4.81711 16.2844 3.59927C16.6692 3.42916 16.8431 2.97934 16.673 2.59452C16.5028 2.2097 16.0527 2.03572 15.6682 2.20594C12.7421 3.50005 10.0942 5.31984 7.79814 7.61485C2.88698 12.526 0.182373 19.0554 0.182373 26C0.182373 32.9446 2.88708 39.474 7.79824 44.3852C12.7087 49.2957 19.2376 52 26.1824 52C28.3127 52 30.0458 50.2669 30.0458 48.1366C30.0458 46.0062 28.3126 44.2731 26.1824 44.2731Z" fill="#495AB4"/>
<path d="M34.5656 34.9803C34.5689 34.5938 34.5747 33.9161 34.5812 33.0647C35.6184 32.8368 36.397 31.9106 36.397 30.8059C36.397 29.712 35.6333 28.7929 34.6112 28.5538C34.645 22.2921 34.606 21.8249 34.5928 21.6674C34.4745 20.2483 33.6002 19.0843 32.3652 18.7018C31.1282 18.3192 29.835 18.7725 28.9047 19.9139C28.0891 20.9147 24.6575 27.0832 23.22 29.6888C22.8265 30.4019 22.8393 31.2805 23.2534 31.9817C23.6673 32.683 24.4305 33.1186 25.2448 33.1186H29.9554C29.9504 33.7583 29.9454 34.3717 29.9406 34.9406C29.9352 35.5583 30.1708 36.1412 30.6038 36.5817C31.0368 37.0222 31.6155 37.2678 32.2313 37.2731L32.2533 37.2732C33.5175 37.273 34.5547 36.2446 34.5656 34.9803ZM31.6903 35.5136C31.5426 35.3633 31.4622 35.1644 31.464 34.9536C31.4708 34.16 31.4779 33.2799 31.4845 32.3622C31.486 32.1592 31.4063 31.9641 31.2633 31.8201C31.1203 31.6761 30.9257 31.595 30.7228 31.595H25.2448C24.9669 31.595 24.7065 31.4463 24.5653 31.2071C24.424 30.9679 24.4196 30.6681 24.5539 30.4247C26.8331 26.2934 29.4833 21.6155 30.0856 20.8763C30.502 20.3655 31.0013 20.0939 31.5012 20.0939C31.6395 20.0939 31.778 20.1147 31.9147 20.157C32.5529 20.3546 33.0083 20.9972 33.0748 21.7938C33.0932 22.0148 33.1189 23.2776 33.0838 29.2505C33.0826 29.4533 33.1623 29.6482 33.3054 29.792C33.4483 29.9358 33.6427 30.0166 33.8455 30.0166H34.0845C34.5196 30.0166 34.8737 30.3707 34.8737 30.8058C34.8737 31.2409 34.5197 31.5949 34.0845 31.5949H33.8248C33.4064 31.5949 33.0661 31.9325 33.0631 32.351C33.0544 33.5293 33.0463 34.4797 33.0422 34.9672C33.0385 35.3985 32.6846 35.7494 32.2533 35.7495H32.2463C32.0355 35.7478 31.8381 35.664 31.6903 35.5136Z" fill="#495AB4"/>
<path d="M30.9617 23.4597C30.6297 23.3698 30.2788 23.5131 30.1048 23.8096C29.3656 25.0707 28.3395 26.8726 27.2155 28.8834C27.0836 29.1193 27.0866 29.4074 27.2234 29.6405C27.3601 29.8736 27.6101 30.0168 27.8804 30.0168H30.7435C31.1625 30.0168 31.5028 29.6784 31.5053 29.2595C31.5172 27.1857 31.5236 25.4343 31.5237 24.1949C31.5237 23.8511 31.2935 23.5499 30.9617 23.4597ZM29.9862 28.4934H29.1809C29.462 27.994 29.7338 27.5132 29.993 27.0571C29.9912 27.5118 29.9887 27.9916 29.9862 28.4934Z" fill="#495AB4"/>
<path d="M23.6671 25.7578C23.7246 25.4542 23.7883 24.9984 23.7967 24.6896C23.7967 21.4284 21.1434 18.7751 17.8822 18.7751C15.0623 18.7751 12.6216 20.7815 12.0787 23.5458C11.9597 24.152 12.0838 24.7681 12.4282 25.2809C12.7726 25.7937 13.2961 26.1417 13.9024 26.2607C15.1539 26.5064 16.3716 25.6883 16.6171 24.4372C16.7352 23.8363 17.2671 23.4003 17.8822 23.4003C18.5571 23.4003 19.1108 23.9135 19.1669 24.5789L19.1374 24.809C18.977 25.4118 18.6024 26.1366 18.0233 26.964C15.8025 30.137 14.4778 31.8715 13.7659 32.8039C12.8576 33.9931 12.2576 34.7788 12.6381 36.016C12.8668 36.7597 13.4275 37.3294 14.1763 37.579C14.484 37.6816 14.7063 37.7558 17.5305 37.7558C18.6758 37.7558 20.1738 37.7439 22.1098 37.7196C23.3849 37.7035 24.4091 36.6532 24.3932 35.3781C24.3771 34.1066 23.3283 33.0819 22.0516 33.0947C21.1379 33.1062 20.1912 33.1152 19.3075 33.1206C20.0902 32.0525 20.9174 30.8951 21.8127 29.616C22.7652 28.2551 23.3892 26.9564 23.6671 25.7578ZM17.1814 33.432C17.0084 33.6631 16.9808 33.972 17.1101 34.23C17.2393 34.4877 17.5029 34.6504 17.7911 34.6504H17.7922C19.0378 34.6485 20.5973 34.6368 22.0687 34.6182C22.5052 34.6183 22.8643 34.9635 22.8698 35.3974C22.8753 35.8325 22.5257 36.1909 22.0906 36.1965C20.161 36.2207 18.6693 36.2325 17.5305 36.2325C14.9535 36.2325 14.7613 36.1684 14.658 36.134C14.378 36.0407 14.1777 35.8398 14.0942 35.5683C13.9553 35.1166 14.1002 34.8763 14.9769 33.7282C15.6953 32.7875 17.0324 31.0367 19.2714 27.8377C19.9706 26.8386 20.4262 25.9308 20.6255 25.1394C20.6514 24.9989 20.6933 24.7159 20.6925 24.5735C20.6305 23.0614 19.396 21.877 17.8821 21.877C16.5409 21.877 15.3801 22.8302 15.1221 24.1436C15.0382 24.5706 14.6227 24.8493 14.1957 24.7659C13.9888 24.7253 13.8102 24.6066 13.6926 24.4316C13.5751 24.2566 13.5328 24.0463 13.5734 23.8395C13.9763 21.7877 15.7884 20.2986 17.882 20.2986C20.3032 20.2986 22.2731 22.2685 22.2731 24.6896C22.2684 24.8182 22.2055 25.2846 22.1831 25.4125C21.9491 26.4216 21.4045 27.542 20.5644 28.7426C19.3257 30.5127 18.219 32.0466 17.1814 33.432Z" fill="#495AB4"/>
<path d="M51.4436 34.5184C51.0186 33.8688 50.3024 33.4811 49.5275 33.4811H41.9032C40.6415 33.4811 39.615 34.508 39.615 35.7703C39.615 37.032 40.6415 38.0585 41.9032 38.0585H46.0217L43.877 42.9378C43.7077 43.3229 43.8828 43.7723 44.2679 43.9416C44.653 44.1111 45.1025 43.9359 45.2717 43.5508L47.8859 37.6033C47.9895 37.3678 47.9671 37.0958 47.8264 36.8804C47.6858 36.6649 47.4459 36.5351 47.1886 36.5351H41.9033C41.4816 36.5351 41.1385 36.192 41.1385 35.7703C41.1385 35.348 41.4816 35.0045 41.9033 35.0045H49.5276C49.7866 35.0045 50.0263 35.1346 50.1688 35.3525C50.3105 35.5691 50.3326 35.8402 50.2277 36.0782L44.136 49.9363C44.0137 50.2145 43.7384 50.3943 43.4348 50.3943C43.3293 50.3943 43.2253 50.3722 43.1278 50.3297C42.7414 50.1599 42.565 49.7076 42.7346 49.3217L44.0458 46.3398C44.2152 45.9547 44.0402 45.5053 43.655 45.3359C43.2704 45.1667 42.8206 45.3413 42.6512 45.7266L41.3399 48.7085C40.8323 49.8637 41.3593 51.2165 42.5165 51.7251C42.8093 51.8528 43.1183 51.9176 43.4348 51.9176C44.3424 51.9176 45.1651 51.3806 45.5307 50.5494L51.622 36.6919C51.9354 35.9809 51.8688 35.1683 51.4436 34.5184Z" fill="#495AB4"/>
<path d="M42.1286 25.5918C41.7506 25.4071 41.2945 25.5637 41.1098 25.9417L32.3087 43.9501C32.1241 44.328 32.2807 44.7841 32.6586 44.9688C32.7662 45.0215 32.8802 45.0463 32.9924 45.0463C33.2742 45.0463 33.5452 44.8892 33.6773 44.619L42.4784 26.6106C42.6632 26.2328 42.5066 25.7766 42.1286 25.5918Z" fill="#495AB4"/>
</g>
<defs>
<clipPath id="clip0_55_277">
<rect width="52" height="52" fill="white"/>
</clipPath>
</defs>
</svg>
