<svg width="44" height="44" viewBox="0 0 44 44" fill="none" xmlns="http://www.w3.org/2000/svg">
<path d="M24.9303 27.3392C27.8026 27.3392 30.1384 25.0035 30.1384 22.1312C30.1384 19.2588 27.8026 16.9231 24.9303 16.9231C22.058 16.9231 19.7222 19.2588 19.7222 22.1312C19.7222 25.0035 22.0578 27.3392 24.9303 27.3392ZM24.9303 18.9966C26.6623 18.9966 28.0649 20.4053 28.0649 22.1312C28.0649 23.8631 26.6562 25.2658 24.9303 25.2658C23.1983 25.2658 21.7957 23.8571 21.7957 22.1312C21.7957 20.4053 23.2044 18.9966 24.9303 18.9966Z" fill="#495AB4"/>
<path d="M28.327 28.9125H21.5212C17.7218 28.9125 14.63 31.9983 14.63 35.7854V42.1643C14.63 43.1949 15.4349 43.9999 16.4656 43.9999H33.3643C34.3949 43.9999 35.1998 43.1949 35.1998 42.1643V35.7914C35.206 31.9983 32.1202 28.9125 28.327 28.9125ZM33.1264 41.9326H31.2175V35.8159C31.2175 35.3463 30.8333 34.9621 30.3638 34.9621C29.8942 34.9621 29.51 35.3463 29.51 35.8159V41.9326H20.2953V35.8159C20.2953 35.3463 19.9111 34.9621 19.4416 34.9621C18.972 34.9621 18.5878 35.3463 18.5878 35.8159V41.9326H16.7094V35.7916C16.7094 33.1448 18.8683 30.986 21.5211 30.986H28.3269C30.9736 30.986 33.1263 33.1388 33.1263 35.7854V41.9326H33.1264Z" fill="#495AB4"/>
<path d="M31.4432 10.4161C34.3155 10.4161 36.6512 8.08039 36.6512 5.20806C36.6512 2.33574 34.3155 0 31.4432 0C28.5708 0 26.2351 2.33574 26.2351 5.20806C26.2351 8.08039 28.5708 10.4161 31.4432 10.4161ZM31.4432 2.07346C33.1751 2.07346 34.5778 3.48217 34.5778 5.20806C34.5778 6.93396 33.1691 8.34267 31.4432 8.34267C29.7112 8.34267 28.3086 6.93396 28.3086 5.20806C28.3086 3.48217 29.7112 2.07346 31.4432 2.07346Z" fill="#495AB4"/>
<path d="M39.6945 14.0019C38.3955 12.7029 36.6697 11.9833 34.8341 11.9833H27.9185C25.7475 11.9833 23.6862 13.0322 22.3994 14.7886C22.0579 15.2521 22.1616 15.8985 22.6189 16.2401C22.8019 16.3742 23.0214 16.4414 23.2288 16.4414C23.5459 16.4414 23.863 16.295 24.0642 16.0206C24.9606 14.7948 26.4 14.063 27.9123 14.063H34.8401C36.1207 14.063 37.3221 14.563 38.2308 15.4717C39.1394 16.3804 39.6395 17.5878 39.6395 18.8624V25.0096H37.7306V18.8929C37.7306 18.4233 37.3464 18.0391 36.8768 18.0391C36.4073 18.0391 36.0231 18.4233 36.0231 18.8929V25.0096H30.6748C30.1015 25.0096 29.6381 25.4731 29.6381 26.0464C29.6381 26.6196 30.1015 27.0831 30.6748 27.0831H39.8713C40.9019 27.0831 41.7069 26.2781 41.7069 25.2475V18.8625C41.7129 18.8625 41.7129 18.8625 41.7129 18.8625C41.713 17.0267 40.9996 15.3009 39.6945 14.0019Z" fill="#495AB4"/>
<path d="M12.5807 17.3683C15.4531 17.3683 17.7888 15.0326 17.7888 12.1603C17.7888 9.28795 15.4531 6.95221 12.5807 6.95221C9.70842 6.95221 7.37268 9.28795 7.37268 12.1603C7.37268 15.0326 9.7083 17.3683 12.5807 17.3683ZM12.5807 9.01959C14.3127 9.01959 15.7153 10.4283 15.7153 12.1542C15.7153 13.8862 14.3066 15.2888 12.5807 15.2888C10.8488 15.2888 9.44614 13.8801 9.44614 12.1542C9.44614 10.4283 10.8548 9.01959 12.5807 9.01959Z" fill="#495AB4"/>
<path d="M13.2395 31.9618H7.97041V25.8389C7.97041 25.3694 7.58617 24.9852 7.11664 24.9852C6.64711 24.9852 6.26286 25.3694 6.26286 25.8389V31.9618H4.35413V25.8145C4.35413 23.1678 6.51299 21.0151 9.17187 21.0151L16.0204 21.0212C16.6363 21.0212 17.2096 21.131 17.7829 21.3627C17.9109 21.4115 18.039 21.4358 18.1732 21.4358C18.5818 21.4358 18.9721 21.1919 19.1368 20.7894C19.3503 20.2589 19.0942 19.6551 18.5635 19.4417C17.7403 19.1123 16.9109 18.9477 16.0266 18.9477L9.17806 18.9417C5.37871 18.9417 2.28687 22.0274 2.28687 25.8145V32.1934C2.28687 33.2241 3.09181 34.029 4.12246 34.029H13.2396C13.8129 34.029 14.2763 33.5656 14.2763 32.9923C14.2762 32.4252 13.8127 31.9618 13.2395 31.9618Z" fill="#495AB4"/>
</svg>
