<svg width="52" height="52" viewBox="0 0 52 52" fill="none" xmlns="http://www.w3.org/2000/svg">
<path d="M48.8299 2.69226H39.0311C38.6104 2.69226 38.2694 3.03331 38.2694 3.45398C38.2694 3.87465 38.6104 4.2157 39.0311 4.2157H48.8299C49.7379 4.2157 50.4766 4.95436 50.4766 5.86233V34.805H1.52344V5.86233C1.52344 4.95436 2.2621 4.2157 3.17007 4.2157H35.4763C35.897 4.2157 36.238 3.87465 36.238 3.45398C36.238 3.03331 35.897 2.69226 35.4763 2.69226H3.17007C1.42208 2.69226 0 4.11434 0 5.86233V37.2209C0 38.9689 1.42208 40.3909 3.17007 40.3909H10.4624C10.883 40.3909 11.2241 40.0499 11.2241 39.6292C11.2241 39.2085 10.883 38.8675 10.4624 38.8675H3.17007C2.2621 38.8675 1.52344 38.1288 1.52344 37.2209V36.3284H50.4766V37.2209C50.4766 38.1288 49.7379 38.8675 48.8299 38.8675H13.9835C13.5629 38.8675 13.2218 39.2085 13.2218 39.6292C13.2218 40.0499 13.5629 40.3909 13.9835 40.3909H18.7777L18.0256 44.7373H16.6356C15.3755 44.7373 14.3505 45.7624 14.3505 47.0225C14.3505 48.2825 15.3755 49.3076 16.6356 49.3076H35.3644C36.6245 49.3076 37.6495 48.2825 37.6495 47.0225C37.6495 45.7624 36.6245 44.7373 35.3644 44.7373H33.9744L33.2223 40.3909H48.8298C50.5778 40.3909 51.9999 38.9689 51.9999 37.2209V5.86233C52 4.11434 50.5779 2.69226 48.8299 2.69226ZM32.4283 44.7373H30.3546C29.9339 44.7373 29.5929 45.0784 29.5929 45.499C29.5929 45.9197 29.9339 46.2607 30.3546 46.2607H35.3644C35.7844 46.2607 36.1261 46.6024 36.1261 47.0225C36.1261 47.4425 35.7844 47.7842 35.3644 47.7842H16.6356C16.2156 47.7842 15.8739 47.4425 15.8739 47.0225C15.8739 46.6024 16.2156 46.2607 16.6356 46.2607H26.7987C27.2194 46.2607 27.5604 45.9197 27.5604 45.499C27.5604 45.0784 27.2194 44.7373 26.7987 44.7373H19.5717L20.3238 40.3909H31.6763L32.4283 44.7373Z" fill="#495AB4"/>
<path d="M41.206 21.9655C40.9193 21.9655 40.657 22.1263 40.527 22.3818L36.9323 29.447L33.8988 23.4847C33.7688 23.2293 33.5065 23.0684 33.2199 23.0684C32.9333 23.0684 32.6709 23.2293 32.5409 23.4847L30.8966 26.7168H28.2711C27.8504 26.7168 27.5093 27.0578 27.5093 27.4785C27.5093 27.8991 27.8504 28.2402 28.2711 28.2402H31.3636C31.6502 28.2402 31.9126 28.0793 32.0426 27.8239L33.2199 25.51L36.2534 31.4722C36.3834 31.7277 36.6457 31.8885 36.9323 31.8885C37.2189 31.8885 37.4813 31.7277 37.6113 31.4722L41.206 24.407L42.9444 27.824C43.0744 28.0794 43.3367 28.2403 43.6233 28.2403H46.7159C47.1366 28.2403 47.4776 27.8993 47.4776 27.4786C47.4776 27.0579 47.1366 26.7169 46.7159 26.7169H44.0904L41.8849 22.3819C41.7549 22.1263 41.4926 21.9655 41.206 21.9655Z" fill="#495AB4"/>
<path d="M28.2712 19.7091H32.224C32.6446 19.7091 32.9857 19.368 32.9857 18.9473V10.9286C32.9857 10.5079 32.6446 10.1669 32.224 10.1669H28.2712C27.8506 10.1669 27.5095 10.5079 27.5095 10.9286V18.9473C27.5095 19.368 27.8506 19.7091 28.2712 19.7091ZM29.033 11.6903H31.4622V18.1856H29.033V11.6903Z" fill="#495AB4"/>
<path d="M39.4968 12.3458H35.5441C35.1234 12.3458 34.7823 12.6869 34.7823 13.1075V18.9473C34.7823 19.368 35.1234 19.709 35.5441 19.709H39.4968C39.9175 19.709 40.2585 19.368 40.2585 18.9473V13.1075C40.2585 12.6869 39.9175 12.3458 39.4968 12.3458ZM38.7351 18.1856H36.3058V13.8693H38.7351V18.1856Z" fill="#495AB4"/>
<path d="M46.7158 19.709C47.1364 19.709 47.4775 19.368 47.4775 18.9473V8.91809C47.4775 8.49742 47.1364 8.15637 46.7158 8.15637H42.7631C42.3424 8.15637 42.0013 8.49742 42.0013 8.91809V18.9473C42.0013 19.368 42.3424 19.709 42.7631 19.709H46.7158ZM43.5248 9.67981H45.9541V18.1856H43.5248V9.67981Z" fill="#495AB4"/>
<path d="M22.5366 16.7731H5.27094C4.85026 16.7731 4.50922 17.1141 4.50922 17.5348C4.50922 17.9555 4.85026 18.2965 5.27094 18.2965H22.5366C22.9572 18.2965 23.2983 17.9555 23.2983 17.5348C23.2983 17.1141 22.9572 16.7731 22.5366 16.7731Z" fill="#495AB4"/>
<path d="M5.27094 22.343H8.36067C8.78134 22.343 9.12239 22.002 9.12239 21.5813C9.12239 21.1606 8.78134 20.8196 8.36067 20.8196H5.27094C4.85026 20.8196 4.50922 21.1606 4.50922 21.5813C4.50922 22.002 4.85026 22.343 5.27094 22.343Z" fill="#495AB4"/>
<path d="M22.5365 20.8196H11.8508C11.4301 20.8196 11.0891 21.1606 11.0891 21.5813C11.0891 22.002 11.4301 22.343 11.8508 22.343H22.5365C22.9571 22.343 23.2982 22.002 23.2982 21.5813C23.2982 21.1606 22.9571 20.8196 22.5365 20.8196Z" fill="#495AB4"/>
<path d="M22.5366 8.15637H5.27094C4.85026 8.15637 4.50922 8.49742 4.50922 8.91809C4.50922 9.33876 4.85026 9.67981 5.27094 9.67981H22.5366C22.9572 9.67981 23.2983 9.33876 23.2983 8.91809C23.2983 8.49742 22.9572 8.15637 22.5366 8.15637Z" fill="#495AB4"/>
<path d="M5.27093 13.7262H15.9779C16.3985 13.7262 16.7396 13.3851 16.7396 12.9645C16.7396 12.5438 16.3985 12.2028 15.9779 12.2028H5.27093C4.85026 12.2028 4.50922 12.5438 4.50922 12.9645C4.50922 13.3851 4.85026 13.7262 5.27093 13.7262Z" fill="#495AB4"/>
<path d="M22.5365 12.2028H19.468C19.0473 12.2028 18.7062 12.5438 18.7062 12.9645C18.7062 13.3851 19.0473 13.7262 19.468 13.7262H22.5365C22.9571 13.7262 23.2982 13.3851 23.2982 12.9645C23.2982 12.5438 22.9571 12.2028 22.5365 12.2028Z" fill="#495AB4"/>
<path d="M23.2983 25.5785C23.2983 25.1578 22.9572 24.8168 22.5366 24.8168H5.27094C4.85026 24.8168 4.50922 25.1578 4.50922 25.5785C4.50922 25.9992 4.85026 26.3402 5.27094 26.3402H22.5366C22.9572 26.3402 23.2983 25.9992 23.2983 25.5785Z" fill="#495AB4"/>
<path d="M5.27094 28.8418C4.85026 28.8418 4.50922 29.1828 4.50922 29.6035C4.50922 30.0242 4.85026 30.3652 5.27094 30.3652H13.3959C13.8166 30.3652 14.1577 30.0242 14.1577 29.6035C14.1577 29.1828 13.8166 28.8418 13.3959 28.8418H5.27094Z" fill="#495AB4"/>
</svg>
