<svg width="52" height="52" viewBox="0 0 52 52" fill="none" xmlns="http://www.w3.org/2000/svg">
<g clip-path="url(#clip0_55_288)">
<path d="M31.0951 42.5714C31.5912 43.0426 32.2492 43.3052 32.9333 43.3052C33.6175 43.3052 34.2755 43.0426 34.7715 42.5714L43.4382 33.9048C43.9118 33.4144 44.1739 32.7577 44.168 32.0759C44.162 31.3942 43.8886 30.7421 43.4065 30.2601C42.9245 29.778 42.2724 29.5046 41.5907 29.4986C40.9089 29.4927 40.2522 29.7548 39.7618 30.2284L32.9333 37.0595C32.4316 36.631 31.7887 36.4042 31.1292 36.4231C30.4697 36.442 29.8407 36.7052 29.3644 37.1617C28.877 37.6493 28.6031 38.3105 28.6031 38.9999C28.6031 39.6893 28.877 40.3505 29.3644 40.8381L31.0951 42.5714ZM30.5881 38.3872C30.7517 38.2271 30.9715 38.1374 31.2004 38.1374C31.4293 38.1374 31.6491 38.2271 31.8127 38.3872L32.3206 38.8951C32.4831 39.0575 32.7035 39.1488 32.9333 39.1488C33.1631 39.1488 33.3835 39.0575 33.5461 38.8951L40.9873 31.4539C41.1507 31.296 41.3697 31.2086 41.5969 31.2106C41.8241 31.2126 42.0415 31.3037 42.2022 31.4644C42.3629 31.6251 42.454 31.8425 42.456 32.0697C42.458 32.2969 42.3706 32.5159 42.2127 32.6793L33.5461 41.346C33.3809 41.5033 33.1615 41.5911 32.9333 41.5911C32.7052 41.5911 32.4858 41.5033 32.3206 41.346L30.5873 39.6127C30.4272 39.4488 30.3377 39.2288 30.3378 38.9997C30.338 38.7707 30.4278 38.5508 30.5881 38.3872Z" fill="#495AB4"/>
<path d="M2.27406e-05 26C-0.00438649 28.8529 0.632445 31.6702 1.86344 34.2439C3.09443 36.8175 4.88811 39.0815 7.11188 40.8686C9.33564 42.6557 11.9326 43.9202 14.7108 44.5685C17.4891 45.2169 20.3775 45.2325 23.1626 44.6143C24.5703 46.8869 26.539 48.7593 28.8793 50.0515C31.2196 51.3436 33.8529 52.0121 36.5261 51.9928C39.1994 51.9734 41.8228 51.2669 44.1441 49.9409C46.4655 48.615 48.4068 46.7143 49.7815 44.4216C51.1562 42.1288 51.9181 39.521 51.994 36.8487C52.0699 34.1764 51.4572 31.5296 50.2148 29.1625C48.9725 26.7953 47.1422 24.7876 44.8998 23.332C42.6574 21.8765 40.0784 21.0222 37.4106 20.8511C36.4688 17.4477 34.597 14.3741 32.0052 11.9756L33.4967 9.76647C33.7517 9.38811 33.8481 8.92483 33.7653 8.47613C33.6825 8.02743 33.4271 7.6291 33.0538 7.36667L31.6152 6.37001C31.2349 6.11206 30.7678 6.01564 30.3165 6.10193C29.8652 6.18823 29.4667 6.45017 29.2084 6.8302L27.7334 9.01334C26.0946 8.1771 24.3429 7.58358 22.5334 7.25141V5.04054C23.1111 4.83703 23.5983 4.4356 23.9084 3.90734C24.2186 3.37909 24.3318 2.75811 24.228 2.15438C24.1242 1.55066 23.8101 1.00315 23.3413 0.608837C22.8725 0.214521 22.2793 -0.00115609 21.6667 4.66089e-06H16.4667C15.8541 -0.00115609 15.2609 0.214521 14.7921 0.608837C14.3233 1.00315 14.0092 1.55066 13.9054 2.15438C13.8015 2.75811 13.9148 3.37909 14.2249 3.90734C14.5351 4.4356 15.0222 4.83703 15.6 5.04054V7.25487C13.7923 7.58841 12.0429 8.18372 10.407 9.02201L8.92669 6.83107C8.79837 6.64199 8.63394 6.48015 8.44284 6.35485C8.25174 6.22956 8.03776 6.14328 7.81319 6.101C7.58863 6.05871 7.35792 6.06124 7.13434 6.10845C6.91076 6.15566 6.69872 6.24661 6.51042 6.37607L5.08042 7.36667C4.70638 7.6293 4.4504 8.02828 4.36758 8.47775C4.28475 8.92722 4.3817 9.39123 4.63756 9.76994L6.14296 12.0007C4.20606 13.7821 2.66 15.9461 1.60261 18.3558C0.545218 20.7655 -0.000488562 23.3685 2.27406e-05 26ZM50.2667 36.4C50.2667 39.1426 49.4534 41.8236 47.9297 44.1039C46.406 46.3843 44.2404 48.1616 41.7066 49.2111C39.1728 50.2607 36.3846 50.5353 33.6948 50.0002C31.0049 49.4652 28.5341 48.1445 26.5948 46.2052C24.6555 44.2659 23.3349 41.7951 22.7998 39.1053C22.2648 36.4154 22.5394 33.6273 23.5889 31.0935C24.6384 28.5597 26.4158 26.394 28.6961 24.8703C30.9765 23.3466 33.6575 22.5333 36.4 22.5333C40.0764 22.5377 43.6009 24 46.2004 26.5996C48.8 29.1992 50.2623 32.7237 50.2667 36.4ZM21.1554 39.6847C20.4649 39.7992 19.7666 39.8601 19.0667 39.8667C16.5224 39.8701 14.0262 39.1735 11.8514 37.853C9.67652 36.5326 7.9069 34.6392 6.73624 32.3803C5.56557 30.1213 5.03898 27.5837 5.21412 25.0455C5.38927 22.5072 6.25939 20.0661 7.72923 17.9893C9.19907 15.9125 11.212 14.2801 13.5475 13.2709C15.8831 12.2617 18.4514 11.9145 20.9711 12.2674C23.4908 12.6202 25.8648 13.6595 27.8333 15.2715C29.8018 16.8835 31.2889 19.006 32.1317 21.4067C28.3184 22.4823 25.0593 24.9726 23.0195 28.3693C20.9797 31.7661 20.3129 35.8131 21.1554 39.6847ZM30.6384 7.80001L32.0589 8.79494L30.6722 10.8567C30.2129 10.5101 29.7362 10.179 29.2466 9.87047L30.6384 7.80001ZM16.4667 1.73334H21.6667C21.8965 1.73334 22.117 1.82465 22.2795 1.98718C22.442 2.14971 22.5334 2.37015 22.5334 2.6C22.5334 2.82986 22.442 3.0503 22.2795 3.21283C22.117 3.37536 21.8965 3.46667 21.6667 3.46667H16.4667C16.2368 3.46667 16.0164 3.37536 15.8539 3.21283C15.6913 3.0503 15.6 2.82986 15.6 2.6C15.6 2.37015 15.6913 2.14971 15.8539 1.98718C16.0164 1.82465 16.2368 1.73334 16.4667 1.73334ZM20.8 5.20001V7.01481C20.228 6.96367 19.6508 6.93334 19.0667 6.93334C18.4826 6.93334 17.9045 6.96367 17.3334 7.02001V5.20001H20.8ZM6.06669 8.79061L7.48976 7.80001L8.89809 9.88001C8.40813 10.1891 7.93407 10.5199 7.47589 10.8723L6.06669 8.79061ZM19.0667 8.66667C22.7631 8.65924 26.3644 9.83782 29.3412 12.0292C32.318 14.2205 34.5133 17.309 35.6044 20.8407C35.0096 20.8699 34.417 20.9333 33.8295 21.0305C32.9133 18.3126 31.265 15.9001 29.066 14.0585C26.8671 12.2169 24.2027 11.0177 21.3661 10.5928C18.5295 10.1679 15.6307 10.5338 12.9887 11.6502C10.3466 12.7666 8.06379 14.5903 6.39139 16.9205C4.719 19.2507 3.72187 21.9971 3.50975 24.8575C3.29763 27.7179 3.87874 30.5813 5.18913 33.1327C6.49952 35.6841 8.48838 37.8246 10.9368 39.3185C13.3853 40.8124 16.1985 41.6019 19.0667 41.6C19.9238 41.592 20.7787 41.5123 21.6225 41.3617C21.816 41.9304 22.0423 42.4875 22.3002 43.03C19.9297 43.4794 17.4915 43.429 15.1416 42.8819C12.7917 42.3349 10.5818 41.3032 8.65355 39.8531C6.72525 38.4029 5.12094 36.5661 3.9433 34.4603C2.76565 32.3545 2.04061 30.026 1.81457 27.6239C1.58854 25.2217 1.86649 22.7989 2.63063 20.5103C3.39477 18.2218 4.62828 16.118 6.25221 14.3336C7.87614 12.5491 9.85472 11.1234 12.0613 10.1476C14.2679 9.17176 16.6539 8.66737 19.0667 8.66667Z" fill="#495AB4"/>
<path d="M19.9334 23.5595V17.3333C19.9334 17.1035 19.8421 16.883 19.6796 16.7205C19.517 16.558 19.2966 16.4667 19.0667 16.4667C18.8369 16.4667 18.6164 16.558 18.4539 16.7205C18.2914 16.883 18.2001 17.1035 18.2001 17.3333V23.5595C17.6949 23.7381 17.2572 24.0684 16.947 24.5053C16.6367 24.9421 16.469 25.4642 16.4667 26C16.4682 26.3861 16.5571 26.7668 16.7267 27.1137L14.1198 29.7206C14.037 29.8006 13.971 29.8962 13.9256 30.0019C13.8802 30.1077 13.8563 30.2214 13.8553 30.3365C13.8543 30.4515 13.8762 30.5657 13.9198 30.6722C13.9633 30.7787 14.0277 30.8755 14.1091 30.9568C14.1904 31.0382 14.2872 31.1026 14.3937 31.1461C14.5002 31.1897 14.6143 31.2116 14.7294 31.2106C14.8445 31.2096 14.9582 31.1857 15.064 31.1403C15.1697 31.0949 15.2653 31.0289 15.3453 30.9461L17.9531 28.34C18.2999 28.5096 18.6807 28.5985 19.0667 28.6C19.6793 28.6012 20.2726 28.3855 20.7414 27.9912C21.2102 27.5969 21.5243 27.0494 21.6281 26.4456C21.7319 25.8419 21.6187 25.2209 21.3085 24.6927C20.9983 24.1644 20.5112 23.763 19.9334 23.5595ZM19.0667 26.8667C18.8399 26.8674 18.6219 26.7787 18.4601 26.6197V26.6067L18.4497 26.5998C18.3112 26.4553 18.227 26.2674 18.2114 26.0679C18.1957 25.8684 18.2495 25.6697 18.3637 25.5054C18.4779 25.3411 18.6455 25.2214 18.8379 25.1666C19.0303 25.1117 19.2358 25.1252 19.4195 25.2046C19.6031 25.2841 19.7536 25.4246 19.8454 25.6024C19.9372 25.7802 19.9647 25.9842 19.9231 26.18C19.8816 26.3757 19.7736 26.551 19.6175 26.6762C19.4614 26.8014 19.2668 26.8687 19.0667 26.8667Z" fill="#495AB4"/>
</g>
<defs>
<clipPath id="clip0_55_288">
<rect width="52" height="52" fill="white"/>
</clipPath>
</defs>
</svg>
