<svg width="52" height="52" viewBox="0 0 52 52" fill="none" xmlns="http://www.w3.org/2000/svg">
<g clip-path="url(#clip0_55_4)">
<path d="M51.5167 16.4266L26.5946 0.176574C26.4185 0.0616708 26.2128 0.000488281 26.0026 0.000488281C25.7923 0.000488281 25.5866 0.0616708 25.4105 0.176574L0.493855 16.4266C0.262 16.5873 0.101989 16.8321 0.0478493 17.109C-0.00629033 17.3859 0.0497125 17.6729 0.203949 17.9092C0.358185 18.1454 0.598486 18.3121 0.873751 18.3739C1.14902 18.4357 1.43753 18.3877 1.67794 18.2401L4.33319 16.5067V48.75C4.33319 49.6119 4.6756 50.4386 5.28509 51.0481C5.89459 51.6576 6.72124 52 7.58319 52H44.4241C45.2861 52 46.1127 51.6576 46.7222 51.0481C47.3317 50.4386 47.6741 49.6119 47.6741 48.75V16.5067C48.0944 16.7072 50.4691 18.5261 50.9241 18.4167C51.1552 18.4121 51.3788 18.3343 51.5627 18.1943C51.7467 18.0544 51.8813 17.8596 51.9473 17.6381C52.0132 17.4166 52.0071 17.1798 51.9297 16.9621C51.8523 16.7443 51.7076 16.5568 51.5167 16.4266ZM37.9219 49.8333H35.7553V42.25C35.7553 41.9627 35.6411 41.6871 35.438 41.484C35.2348 41.2808 34.9593 41.1667 34.6719 41.1667H31.4165V33.5833C31.4165 33.296 31.3024 33.0205 31.0992 32.8173C30.8961 32.6141 30.6205 32.5 30.3332 32.5H21.6665C21.3792 32.5 21.1037 32.6141 20.9005 32.8173C20.6973 33.0205 20.5832 33.296 20.5832 33.5833V41.1667H17.3332C17.0459 41.1667 16.7703 41.2808 16.5672 41.484C16.364 41.6871 16.2499 41.9627 16.2499 42.25V49.8333H14.0832V30.3333H37.9165L37.9219 49.8333ZM22.7499 41.1667V34.6667H29.2499V41.1667H22.7499ZM18.4165 43.3333H24.9165V49.8333H18.4165V43.3333ZM27.0832 49.8333V43.3333H33.5832V49.8333H27.0832ZM45.4999 48.75C45.4999 49.0373 45.3857 49.3129 45.1826 49.516C44.9794 49.7192 44.7038 49.8333 44.4165 49.8333H40.0832V29.25C40.0832 28.9627 39.9691 28.6871 39.7659 28.484C39.5627 28.2808 39.2872 28.1667 38.9999 28.1667H12.9999C12.7125 28.1667 12.437 28.2808 12.2338 28.484C12.0307 28.6871 11.9165 28.9627 11.9165 29.25V49.8333H7.58319C7.29587 49.8333 7.02032 49.7192 6.81716 49.516C6.61399 49.3129 6.49986 49.0373 6.49986 48.75V15.0941L25.9999 2.37682L45.4999 15.0941V48.75ZM34.6665 21.6667C34.6665 21.954 34.5524 22.2295 34.3492 22.4327C34.1461 22.6359 33.8705 22.75 33.5832 22.75H18.4165C18.1292 22.75 17.8537 22.6359 17.6505 22.4327C17.4473 22.2295 17.3332 21.954 17.3332 21.6667C17.3332 21.3793 17.4473 21.1038 17.6505 20.9006C17.8537 20.6975 18.1292 20.5833 18.4165 20.5833H33.5832C33.7259 20.5826 33.8674 20.6101 33.9994 20.6642C34.1315 20.7184 34.2516 20.798 34.3527 20.8987C34.4539 20.9994 34.5342 21.119 34.589 21.2508C34.6437 21.3826 34.6719 21.5239 34.6719 21.6667H34.6665ZM18.4165 15.1667H33.5832C33.8705 15.1667 34.1461 15.2808 34.3492 15.484C34.5524 15.6871 34.6665 15.9627 34.6665 16.25C34.6665 16.5373 34.5524 16.8129 34.3492 17.016C34.1461 17.2192 33.8705 17.3333 33.5832 17.3333H18.4165C18.1292 17.3333 17.8537 17.2192 17.6505 17.016C17.4473 16.8129 17.3332 16.5373 17.3332 16.25C17.3332 15.9627 17.4473 15.6871 17.6505 15.484C17.8537 15.2808 18.1292 15.1667 18.4165 15.1667Z" fill="#495AB4"/>
</g>
<defs>
<clipPath id="clip0_55_4">
<rect width="52" height="52" fill="white"/>
</clipPath>
</defs>
</svg>
